<svg width="32" height="32" viewBox="0 0 32 32" fill="none" xmlns="http://www.w3.org/2000/svg">
<path d="M20.333 21.482L22.573 19.242C22.8729 18.9421 23.2541 18.7368 23.6695 18.6514C24.0849 18.5661 24.5162 18.6046 24.91 18.762L27.638 19.854C28.0401 20.0149 28.3848 20.2925 28.6275 20.6512C28.8703 21.0098 29 21.4329 29 21.866V26.827C29.0007 27.1219 28.9412 27.4138 28.8252 27.6848C28.7092 27.9559 28.5391 28.2005 28.3253 28.4035C28.1114 28.6066 27.8584 28.7638 27.5817 28.8657C27.305 28.9676 27.0105 29.0119 26.716 28.996C7.59402 27.806 3.73202 11.61 3.01502 5.40801C2.98029 5.1048 3.01015 4.79768 3.10263 4.50685C3.19511 4.21601 3.34812 3.94805 3.55159 3.72059C3.75506 3.49312 4.00438 3.31131 4.28315 3.18712C4.56193 3.06292 4.86383 2.99916 5.16902 3.00001H10.042C10.4751 2.99999 10.8982 3.12974 11.2569 3.37251C11.6155 3.61528 11.8931 3.95993 12.054 4.36201L13.145 7.09001C13.3025 7.48378 13.3409 7.9151 13.2556 8.33051C13.1703 8.74592 12.9649 9.12717 12.665 9.42701L10.425 11.667C10.425 11.667 11.667 20.399 20.333 21.482Z" fill="white"/>
<path d="M20 4V6H24.586L18 12.586L19.414 14L26 7.414V12H28V4H20Z" fill="white"/>
</svg>
