<svg width="16" height="18" viewBox="0 0 16 18" fill="none" xmlns="http://www.w3.org/2000/svg">
<path d="M5.75911 0C4.70161 0 3.83054 0.871071 3.83054 1.92857V9.52264L3.40883 9.08035L3.24811 8.93957C2.89054 8.58359 2.40653 8.38374 1.90197 8.38374C1.39742 8.38374 0.913401 8.58359 0.55583 8.93957C0.199853 9.29714 0 9.78115 0 10.2857C0 10.7903 0.199853 11.2743 0.55583 11.6319V11.6518L5.81954 16.8551L5.8594 16.875L5.87933 16.9155C6.80441 17.6167 7.93279 17.9974 9.09361 18H10.1993C10.8909 18.0014 11.576 17.8663 12.2153 17.6022C12.8545 17.3382 13.4353 16.9505 13.9243 16.4615C14.4133 15.9724 14.8009 15.3915 15.0649 14.7523C15.3288 14.113 15.4639 13.4279 15.4624 12.7363V7.71428C15.4624 6.65678 14.5907 5.78571 13.5338 5.78571C13.26 5.78571 13.0067 5.86093 12.7701 5.96635C12.5593 5.13064 11.7988 4.5 10.902 4.5C10.4095 4.5 9.95761 4.69285 9.61625 5.00207C9.26482 4.68098 8.80656 4.50203 8.33054 4.5C8.11087 4.50274 7.89335 4.54364 7.68768 4.62085V1.92857C7.68768 0.871071 6.81661 0 5.75911 0ZM5.75911 1.28571C6.1159 1.28571 6.40197 1.57178 6.40197 1.92857V9H7.68768V6.42857C7.68768 6.07178 7.97375 5.78571 8.33054 5.78571C8.68733 5.78571 8.9734 6.07178 8.9734 6.42857V9H10.2591V6.42857C10.2591 6.07178 10.5452 5.78571 10.902 5.78571C11.2588 5.78571 11.5448 6.07178 11.5448 6.42857V9H12.891V7.71428C12.891 7.3575 13.177 7.07142 13.5338 7.07142C13.89 7.07142 14.1767 7.3575 14.1767 7.71428V12.7369C14.1767 14.9638 12.4262 16.7143 10.1987 16.7143H9.09425C8.15247 16.7143 7.33861 16.3781 6.66297 15.8702L1.45969 10.7274C1.17362 10.4413 1.17362 10.1295 1.45969 9.84342C1.7464 9.55735 2.05754 9.55735 2.34361 9.84342L5.11626 12.6161V1.92857C5.11626 1.57178 5.40233 1.28571 5.75911 1.28571Z" fill="black" fill-opacity="0.7"/>
</svg>
