<svg width="18" height="18" viewBox="0 0 18 18" fill="none" xmlns="http://www.w3.org/2000/svg">
<path d="M17.325 3.60225V0.72C17.325 0.32175 17.0033 0 16.605 0H1.39501C0.996764 0 0.675014 0.32175 0.675014 0.72V3.60225C0.299264 3.62475 1.39409e-05 3.9375 1.39409e-05 4.32V7.28325C-0.00142697 7.82785 0.108845 8.36696 0.324014 8.86725C0.420764 9.09675 0.540014 9.31275 0.675014 9.5175V17.28C0.675014 17.676 0.996764 18 1.39501 18H16.605C17.0033 18 17.325 17.6783 17.325 17.28V9.5175C17.4621 9.31223 17.5797 9.09452 17.676 8.86725C17.8898 8.3655 18 7.83225 18 7.28325V4.32C18 3.9375 17.7008 3.62475 17.325 3.60225ZM2.29501 1.62H15.705V3.6H2.29501V1.62ZM10.44 16.3822H7.56001V14.04H10.44V16.3822ZM15.705 16.3822H11.88V13.32C11.88 12.9218 11.5583 12.6 11.16 12.6H6.84001C6.44176 12.6 6.12001 12.9218 6.12001 13.32V16.3822H2.29501V10.9328C2.36026 10.9643 2.42776 10.9958 2.49751 11.0228C2.99926 11.2343 3.53251 11.34 4.08151 11.34C4.63051 11.34 5.16151 11.2343 5.66551 11.0228C5.97601 10.8923 6.26851 10.7257 6.53626 10.5255C6.54076 10.5233 6.54526 10.5233 6.54976 10.5255C6.81835 10.7266 7.11083 10.8936 7.42051 11.0228C7.92226 11.2343 8.45551 11.34 9.00451 11.34C9.55351 11.34 10.0845 11.2343 10.5885 11.0228C10.899 10.8923 11.1915 10.7257 11.4593 10.5255C11.4638 10.5233 11.4683 10.5233 11.4728 10.5255C11.7413 10.7266 12.0338 10.8936 12.3435 11.0228C12.8453 11.2343 13.3785 11.34 13.9275 11.34C14.4765 11.34 15.0075 11.2343 15.5115 11.0228C15.579 10.9935 15.6465 10.9643 15.714 10.9328V16.3822H15.705ZM16.38 7.28325C16.38 8.62875 15.2775 9.72 13.9208 9.72C13.0028 9.72 12.2018 9.22275 11.7788 8.48475C11.7135 8.37225 11.5965 8.3025 11.466 8.3025H11.4525C11.3243 8.3025 11.205 8.37225 11.1398 8.48475C10.9239 8.86121 10.6122 9.17381 10.2364 9.39077C9.86055 9.60774 9.43397 9.72133 9.00001 9.72C8.08426 9.72 7.28551 9.225 6.86251 8.48925C6.79501 8.3745 6.67351 8.3025 6.54076 8.3025C6.40801 8.3025 6.28426 8.3745 6.21901 8.48925C6.00189 8.86427 5.6898 9.17548 5.31417 9.39154C4.93853 9.6076 4.5126 9.72089 4.07926 9.72C2.72251 9.72 1.62001 8.62875 1.62001 7.28325V5.23125C1.62001 5.2245 1.62451 5.22 1.63126 5.22H16.3688C16.3755 5.22 16.38 5.2245 16.38 5.23125V7.28325Z" fill="black" fill-opacity="0.7"/>
</svg>
