<svg width="167" height="45" viewBox="0 0 167 45" fill="none" xmlns="http://www.w3.org/2000/svg">
<g clip-path="url(#clip0)">
<path d="M5.64414 22.5165C5.64414 11.3246 15.6044 2.225 27.8223 2.225C31.9961 2.2719 36.0841 3.41731 39.6749 5.54604C35.2607 1.98951 29.7718 0.0344602 24.1038 -8.78833e-05C21.0405 -0.115429 17.9846 0.376574 15.1122 1.44759C12.2398 2.5186 9.60755 4.14746 7.36713 6.24035C5.12671 8.33325 3.32235 10.8488 2.05797 13.6422C0.793591 16.4356 0.0941743 19.4516 0 22.5165C0.0984615 25.5786 0.801029 28.591 2.06731 31.3806C3.33359 34.1701 5.13861 36.6818 7.3786 38.7712C9.61858 40.8606 12.2493 42.4865 15.1196 43.5555C17.9899 44.6244 21.0432 45.1153 24.1038 44.9999C29.8113 45.0663 35.368 43.1667 39.841 39.6198C36.2501 41.7486 32.1621 42.894 27.9883 42.9409C15.7704 42.9409 5.81014 33.8412 5.81014 22.6826L5.64414 22.5165ZM45.0203 20.9888C44.5326 20.9707 44.0573 21.1451 43.6971 21.4744C43.3368 21.8037 43.1204 22.2615 43.0946 22.749C43.1031 22.9918 43.1599 23.2306 43.2618 23.4512C43.3636 23.6718 43.5084 23.8698 43.6878 24.0337C43.8671 24.1977 44.0773 24.3241 44.3061 24.4058C44.5349 24.4874 44.7777 24.5225 45.0203 24.5091C45.2585 24.518 45.4961 24.4793 45.7191 24.3952C45.9422 24.3111 46.1462 24.1834 46.3193 24.0195C46.4925 23.8556 46.6312 23.6588 46.7274 23.4407C46.8235 23.2225 46.8753 22.9874 46.8795 22.749C46.8622 22.2704 46.6576 21.8177 46.3099 21.4885C45.9621 21.1592 45.499 20.9798 45.0203 20.9888Z" fill="#2D3A37"/>
<path d="M44.8543 11.5903C45.02 11.5947 45.1849 11.5664 45.3397 11.507C45.4944 11.4477 45.636 11.3584 45.7562 11.2443C45.8765 11.1302 45.9731 10.9935 46.0405 10.842C46.1079 10.6905 46.1448 10.5272 46.1491 10.3615C46.1321 10.0296 45.9881 9.71701 45.7471 9.48829C45.5061 9.25958 45.1865 9.13228 44.8543 9.13271C44.6858 9.12378 44.5173 9.14872 44.3587 9.20605C44.2001 9.26339 44.0546 9.35195 43.9308 9.46651C43.807 9.58107 43.7074 9.7193 43.6379 9.87302C43.5684 10.0267 43.5304 10.1928 43.5262 10.3615C43.5304 10.5302 43.5684 10.6963 43.6379 10.85C43.7074 11.0037 43.807 11.1419 43.9308 11.2565C44.0546 11.371 44.2001 11.4596 44.3587 11.5169C44.5173 11.5743 44.6858 11.5992 44.8543 11.5903ZM44.8543 8.03677C45.0072 8.06414 45.1643 8.05762 45.3144 8.01768C45.4646 7.97773 45.6041 7.90534 45.7232 7.80559C45.8424 7.70585 45.9382 7.58118 46.0039 7.44037C46.0697 7.29957 46.1038 7.14605 46.1038 6.99065C46.1038 6.83524 46.0697 6.68173 46.0039 6.54092C45.9382 6.40012 45.8424 6.27545 45.7232 6.1757C45.6041 6.07596 45.4646 6.00356 45.3144 5.96362C45.1643 5.92368 45.0072 5.91716 44.8543 5.94452C44.7103 5.93553 44.566 5.95505 44.4296 6.00197C44.2933 6.04889 44.1675 6.12228 44.0595 6.21792C43.9516 6.31357 43.8636 6.4296 43.8005 6.55936C43.7375 6.68911 43.7007 6.83003 43.6922 6.97404C43.7094 7.26768 43.8404 7.54304 44.0574 7.74152C44.2745 7.93999 44.5603 8.04593 44.8543 8.03677ZM44.8543 15.4759C45.0541 15.4989 45.2565 15.4804 45.4489 15.4215C45.6412 15.3626 45.8193 15.2646 45.9721 15.1337C46.1248 15.0027 46.2488 14.8417 46.3364 14.6605C46.424 14.4794 46.4733 14.2821 46.4811 14.0811C46.4273 13.7188 46.2451 13.3879 45.9678 13.1488C45.6906 12.9096 45.3366 12.778 44.9705 12.778C44.6043 12.778 44.2504 12.9096 43.9731 13.1488C43.6958 13.3879 43.5137 13.7188 43.4598 14.0811C43.4639 14.2745 43.5071 14.465 43.587 14.6412C43.6669 14.8174 43.7817 14.9755 43.9245 15.1059C44.0674 15.2364 44.2352 15.3364 44.4178 15.4C44.6005 15.4636 44.7941 15.4894 44.9871 15.4759H44.8543ZM44.9871 16.5718C44.5468 16.5718 44.1246 16.7468 43.8132 17.0582C43.5019 17.3696 43.327 17.7919 43.327 18.2323C43.327 18.6727 43.5019 19.0951 43.8132 19.4065C44.1246 19.7179 44.5468 19.8929 44.9871 19.8929C45.4273 19.8929 45.8496 19.7179 46.1609 19.4065C46.4722 19.0951 46.6471 18.6727 46.6471 18.2323C46.6471 17.7919 46.4722 17.3696 46.1609 17.0582C45.8496 16.7468 45.4273 16.5718 44.9871 16.5718Z" fill="#2D3A37"/>
<path d="M27.4238 34.0404C25.8322 34.1499 24.235 33.9303 22.7319 33.3953C21.2287 32.8604 19.8518 32.0216 18.6869 30.9311C17.5221 29.8407 16.5941 28.5219 15.961 27.0571C15.3278 25.5923 15.003 24.0127 15.0067 22.4168C15.0419 20.7672 15.4143 19.1422 16.1009 17.642C16.7876 16.1417 17.7741 14.798 18.9996 13.6935C20.225 12.5891 21.6636 11.7472 23.2266 11.2199C24.7896 10.6925 26.444 10.4908 28.0879 10.6271C31.9604 10.7153 35.754 11.7409 39.1437 13.6161L39.8077 13.915L40.8038 8.5349H40.4053C36.6346 6.59179 32.4621 5.5569 28.2207 5.51276C17.2644 5.51276 9.263 12.6862 9.263 22.5497C9.30418 24.8263 9.80385 27.0712 10.7321 29.1502C11.6604 31.2293 12.9982 33.0998 14.6657 34.6498C16.3331 36.1999 18.2958 37.3978 20.4366 38.1718C22.5773 38.9459 24.8522 39.2802 27.125 39.1548C31.6062 39.2043 36.0115 37.9962 39.8409 35.6677H40.0401L41.1026 29.0257L40.0733 29.6567C36.3908 32.4238 31.9293 33.9579 27.3242 34.0404H27.4238ZM119.523 6.21017H116.867V17.8006H119.523V6.21017ZM66.4016 7.20648C66.4453 7.11212 66.5142 7.03167 66.6008 6.97401L64.7747 6.01091C63.421 7.74732 61.7117 9.17406 59.7614 10.1954L60.857 11.9223C63.071 10.8398 64.9775 9.21824 66.4016 7.20648ZM89.6421 10.7932H87.4509V9.29873H84.2968V10.7932H77.2914V9.29873H73.9714V10.7932H71.8133V13.0183H89.6421V10.7932ZM66.4016 11.8559C66.4502 11.7553 66.5178 11.6651 66.6008 11.5902L64.7747 10.6271C63.429 12.38 61.7184 13.8191 59.7614 14.8449L60.857 16.5718C63.0626 15.4765 64.9662 13.8573 66.4016 11.8559ZM89.6421 6.64191H82.2383V5.81165H79.0843V6.64191H71.9461V8.867H89.6421V6.64191ZM116.203 22.1179L117.929 21.8854C118.798 21.6738 119.62 21.3021 120.353 20.7895C121.129 20.2989 121.767 19.6164 122.203 18.8078C122.639 17.9992 122.859 17.0919 122.843 16.1733V5.81165H120.22V16.1733C120.205 16.7428 120.053 17.3002 119.775 17.7977C119.497 18.2952 119.103 18.7178 118.626 19.0294C117.881 19.5692 116.99 19.8703 116.07 19.8928H115.771V22.1511H116.203V22.1179ZM74.7682 13.6493C74.1581 13.6155 73.5564 13.8043 73.0749 14.1807C72.8752 14.3536 72.7153 14.568 72.6064 14.8088C72.4975 15.0496 72.4421 15.3112 72.4441 15.5755V20.2914C72.435 20.5519 72.4874 20.811 72.597 21.0475C72.7066 21.2841 72.8703 21.4915 73.0749 21.653C73.4763 21.9878 73.98 22.1753 74.5026 22.1843H86.7205C87.2854 22.187 87.8349 21.9998 88.2809 21.653C88.4832 21.4749 88.6444 21.255 88.7534 21.0084C88.8623 20.7618 88.9163 20.4945 88.9117 20.2249V15.4094C88.9009 15.1713 88.8389 14.9383 88.7301 14.7263C88.6212 14.5143 88.468 14.3282 88.2809 14.1807C87.8476 13.8339 87.3085 13.6463 86.7537 13.6493H74.7682ZM86.0232 19.4943C86.0232 19.7932 86.0232 19.8596 86.0232 19.8596C86.0232 19.8596 86.0232 19.8596 85.5916 19.8596H75.6314C75.6314 19.8596 75.4322 19.8596 75.4322 19.6604V18.9961H86.1228L86.0232 19.4943ZM86.0232 16.8043H75.3326V16.1733C75.3326 16.1733 75.3326 15.9076 75.7974 15.9076H85.7576C85.99 15.9076 86.0896 15.9076 86.0896 16.1733L86.0232 16.8043ZM65.7044 14.8781C64.0013 17.0135 61.9998 18.8925 59.7614 20.4574L60.857 22.1843C63.3905 20.6061 65.6362 18.6069 67.4972 16.2729C67.4972 16.2729 67.6632 16.1069 67.6964 16.0072L65.8372 15.0441L65.7044 14.8781ZM126.163 12.3873C126.144 12.244 126.144 12.0989 126.163 11.9556C126.283 11.9231 126.409 11.9231 126.528 11.9556H127.69V22.2508H131.01V11.7563H132.04C132.16 11.7483 132.281 11.7647 132.395 11.8047C132.509 11.8446 132.614 11.9072 132.704 11.9888V18.6308C132.749 18.8051 132.749 18.9879 132.704 19.1622C132.583 19.1873 132.459 19.1873 132.338 19.1622H131.807V21.3541H132.803C133.546 21.4129 134.289 21.2388 134.928 20.8559C135.159 20.6418 135.339 20.3783 135.454 20.085C135.569 19.7918 135.616 19.4763 135.592 19.1622V11.7895C135.628 11.4344 135.588 11.0756 135.473 10.7376C135.358 10.3995 135.173 10.09 134.928 9.8301C134.452 9.47056 133.863 9.2938 133.268 9.33194H130.745V8.03674H135.592V5.81165H123.175V8.03674H128.055V9.33194H125.134C124.634 9.35323 124.155 9.54014 123.773 9.86331C123.562 10.0619 123.399 10.3053 123.296 10.5755C123.192 10.8458 123.151 11.1358 123.175 11.4242V21.3873H126.163V12.3873ZM102.922 14.7452C103.385 15.5494 103.895 16.3257 104.45 17.07C105.503 18.3446 106.733 19.4629 108.102 20.391C109.228 21.1693 110.489 21.7323 111.82 22.0515H111.986V19.6271C111.167 19.3222 110.387 18.9209 109.662 18.4316C107.939 17.2367 106.546 15.626 105.612 13.7489C105.215 12.8989 104.957 11.9907 104.848 11.0589H112.053V8.73416H104.748V5.81165H101.13V8.70095H93.759V11.0257H100.997C100.707 12.6153 100.097 14.1293 99.204 15.4759C97.8559 17.3349 95.9997 18.7649 93.8586 19.5939V22.1179H94.0246C95.1367 21.8858 96.2026 21.4706 97.1787 20.8891C99.1582 19.7338 100.85 18.1441 102.126 16.2397C102.325 15.9076 102.624 15.4426 102.956 14.8116L102.922 14.7452ZM59.7614 11.8891H55.1797V11.6899H56.7733C57.2925 11.7307 57.8082 11.5763 58.2196 11.2569C58.631 10.9375 58.9085 10.4761 58.9978 9.96294V7.63822C58.9391 7.10341 58.6734 6.61283 58.2577 6.27146C57.842 5.93009 57.3092 5.76505 56.7733 5.81165H51.4944C50.9586 5.76505 50.4258 5.93009 50.01 6.27146C49.5943 6.61283 49.3287 7.10341 49.27 7.63822V9.96294C49.3366 10.4943 49.6044 10.9799 50.0182 11.3197C50.432 11.6595 50.9604 11.8277 51.4944 11.7895H53.1213V11.9888H48.5063V13.7489H59.7614V11.8891ZM51.6604 7.63822H56.4413V8.00353H51.6604V7.63822ZM51.6604 9.92973V9.59763H56.6073V9.96294L51.6604 9.92973ZM50.0668 22.1511C50.8213 21.176 51.4985 20.1433 52.092 19.0626V18.8633H51.5608H53.1213V19.926C53.1213 20.1585 52.8888 20.3246 52.59 20.3246H52.1252V22.0847H52.59C53.2174 22.1314 53.8383 21.9323 54.3215 21.5295C54.8048 21.1267 55.1125 20.5517 55.1797 19.926V18.3652H55.9765L55.3789 18.5976L57.5702 21.9187L59.2966 21.1548L57.3378 17.9998C57.6865 17.9254 58.0077 17.7556 58.2656 17.5094C58.5236 17.2631 58.7081 16.95 58.7986 16.605V15.6419C58.7618 15.3692 58.6717 15.1064 58.5333 14.8686C58.3948 14.6308 58.2109 14.4226 57.9919 14.2561C57.7729 14.0895 57.5233 13.9677 57.2572 13.8978C56.9911 13.8279 56.7139 13.8111 56.4413 13.8485H51.6936C51.1646 13.8096 50.6406 13.9732 50.2276 14.3061C49.8146 14.6391 49.5435 15.1166 49.4692 15.6419V16.605C49.488 16.9457 49.6002 17.2746 49.7935 17.5558C49.9867 17.8369 50.2536 18.0595 50.5648 18.1991C50.0038 19.1956 49.3713 20.1501 48.6723 21.0552L48.5063 21.2545L50.0668 22.1511ZM51.7268 15.5091H56.4413V16.605H51.9592L51.7268 15.5091ZM114.144 37.9925C113.961 37.1976 113.872 36.3838 113.879 35.5681V25.4057H113.68L111.389 25.8375C110.187 25.5861 108.964 25.4526 107.737 25.439C106.742 25.3478 105.74 25.4615 104.791 25.773C103.843 26.0845 102.968 26.5873 102.221 27.2502C101.475 27.9131 100.872 28.7221 100.45 29.6272C100.028 30.5324 99.796 31.5144 99.7684 32.5128C99.7642 33.4407 99.9544 34.3593 100.327 35.2092C100.699 36.0592 101.246 36.8216 101.931 37.4474C102.616 38.0732 103.424 38.5484 104.304 38.8425C105.184 39.1366 106.116 39.243 107.039 39.1548C108.334 39.1617 109.617 38.9251 110.824 38.4574V39.1548V39.3209H110.99H111.621L114.012 38.9223V38.7563L114.144 37.9925ZM110.592 35.4021C109.551 35.8826 108.418 36.1319 107.272 36.1327C106.747 36.1947 106.215 36.1432 105.712 35.9817C105.21 35.8202 104.747 35.5524 104.357 35.1965C103.966 34.8406 103.657 34.4049 103.45 33.919C103.242 33.433 103.142 32.9081 103.155 32.3799C103.155 29.8891 105.047 28.3615 108.102 28.3615C108.971 28.3673 109.839 28.4562 110.691 28.6271L110.592 35.4021ZM122.179 30.8522L120.386 30.188C118.66 29.557 118.66 29.2914 118.66 29.0921C118.66 28.8928 119.523 28.1622 120.718 28.1622C121.801 28.175 122.863 28.4605 123.806 28.9925L124.702 29.4242H124.935V26.3024H124.536C123.37 25.855 122.133 25.6188 120.884 25.605C117.564 25.605 115.373 27.2987 115.373 29.6235C115.373 31.284 116.369 32.2803 118.958 33.3098L120.784 34.0072C122.644 34.7046 122.644 35.1032 122.644 35.4021C122.643 35.5382 122.605 35.6716 122.535 35.7884C122.465 35.9052 122.365 36.0011 122.245 36.0663C121.71 36.3327 121.116 36.4584 120.519 36.4316C119.086 36.4047 117.686 35.9917 116.468 35.236L115.406 34.7046H115.14V35.0035L115.638 38.3246H115.937C117.283 39.0139 118.775 39.3672 120.286 39.3541C123.607 39.3541 125.831 37.7932 125.831 35.3024C125.831 33.4094 124.735 32.1806 122.112 31.2175L122.179 30.8522ZM133.6 35.867C133.201 36.1463 132.726 36.2969 132.239 36.2987C131.176 36.2987 130.878 35.9998 130.878 34.9371V28.5939H134.862V25.605H130.878V22.284L127.889 22.7489V25.4057H125.499V28.3947H127.79V34.605C127.752 35.1816 127.842 35.7594 128.051 36.2977C128.261 36.8361 128.587 37.3218 129.004 37.7208C129.422 38.1197 129.922 38.4222 130.47 38.6068C131.017 38.7915 131.598 38.8539 132.172 38.7895C132.865 38.8063 133.554 38.682 134.198 38.4242H134.53L135.094 35.1032V34.7711H134.795L133.6 35.867ZM142.863 25.5386C141.913 25.489 140.962 25.6335 140.07 25.9634C139.177 26.2932 138.361 26.8015 137.672 27.4572C136.982 28.1129 136.433 28.9023 136.058 29.7772C135.684 30.6521 135.491 31.5942 135.492 32.546C135.487 33.4801 135.679 34.4049 136.056 35.2598C136.432 36.1148 136.984 36.8807 137.677 37.5075C138.369 38.1343 139.186 38.608 140.074 38.8976C140.962 39.1872 141.901 39.2861 142.83 39.188C144.773 39.1719 146.671 38.6079 148.308 37.5607H148.574V34.2397V33.974L148.308 34.1401L147.279 34.7378C145.919 35.811 144.261 36.4374 142.531 36.5312C141.791 36.4292 141.099 36.1046 140.548 35.6004C139.997 35.0963 139.611 34.4364 139.443 33.7083L149.404 33.2102V32.9445V31.3172C149.383 30.4794 149.193 29.6545 148.844 28.8926C148.495 28.1308 147.995 27.4479 147.374 26.8856C146.753 26.3232 146.023 25.8932 145.231 25.6217C144.438 25.3502 143.599 25.2428 142.763 25.3061L142.863 25.5386ZM139.443 30.819C139.691 30.0466 140.186 29.3774 140.852 28.9151C141.519 28.4527 142.319 28.2231 143.129 28.2618C143.804 28.2156 144.475 28.4056 145.026 28.7994C145.577 29.1931 145.974 29.7662 146.15 30.4205L139.443 30.819ZM159.696 25.3061H158.965C157.233 25.2463 155.533 25.7859 154.151 26.8338V25.2729H153.985L150.964 25.7046V38.7895H154.284V33.2102C154.129 32.3974 154.213 31.5572 154.525 30.7911C154.838 30.025 155.365 29.3657 156.044 28.8928C156.811 28.4582 157.686 28.2508 158.567 28.295H159.364L159.862 25.605L159.696 25.3061ZM43.161 25.7046H42.995V38.8227H46.3151V25.2397H46.1159L43.161 25.7046ZM93.759 25.2729C92.8186 25.2884 91.8914 25.4969 91.0348 25.8853C90.1782 26.2737 89.4103 26.8339 88.7789 27.5312C88.3072 26.8067 87.655 26.2175 86.8866 25.8216C86.1182 25.4256 85.26 25.2365 84.3964 25.2729C82.8792 25.2929 81.4145 25.832 80.2463 26.8006V25.2397L77.2582 25.6714V38.7895H80.5783V32.9777C80.504 32.0202 80.7118 31.0619 81.1759 30.2212C81.5358 29.656 82.0241 29.1838 82.6011 28.8433C83.1781 28.5028 83.8274 28.3036 84.496 28.2618C84.8366 28.2218 85.1814 28.2822 85.4882 28.4356C85.7949 28.589 86.0501 28.8288 86.2224 29.1253C86.5499 29.8417 86.6652 30.6369 86.5545 31.4168V38.8227H89.8745V32.9777C89.8083 32.0246 90.0034 31.0715 90.4389 30.2212C90.7988 29.656 91.2871 29.1838 91.8641 28.8433C92.4411 28.5028 93.0904 28.3036 93.759 28.2618C94.1025 28.2293 94.4482 28.2965 94.7544 28.4556C95.0606 28.6146 95.3145 28.8587 95.4855 29.1585C95.7854 29.8709 95.8886 30.6509 95.7843 31.4168V38.8227H99.1044V30.6862C99.2174 29.3319 98.8009 27.9866 97.9423 26.9334C97.409 26.3952 96.7722 25.9706 96.0703 25.6852C95.3685 25.3998 94.6161 25.2596 93.8586 25.2729H93.759ZM55.5117 25.2729C53.8726 25.227 52.2711 25.7688 50.9964 26.8006V25.2397H50.7972L47.8423 25.6714V38.7895H51.1624V32.9777C51.0901 32.0163 51.31 31.0554 51.7932 30.2212C52.1929 29.5952 52.7496 29.0849 53.4079 28.7411C54.0661 28.3974 54.8029 28.2321 55.5449 28.2618C57.2381 28.2618 58.035 28.5607 58.035 31.5829V38.9888H61.355V30.6862C61.4396 29.9329 61.35 29.1702 61.0931 28.457C60.8363 27.7438 60.419 27.0992 59.8736 26.5729C59.3282 26.0465 58.6692 25.6526 57.9474 25.4215C57.2257 25.1903 56.4605 25.1281 55.7109 25.2397L55.5117 25.2729ZM69.6884 25.2397C68.7393 25.1993 67.7918 25.3516 66.9031 25.6873C66.0143 26.0231 65.2027 26.5353 64.5171 27.1931C63.8315 27.8509 63.2862 28.6408 62.9139 29.5151C62.5417 30.3894 62.3502 31.33 62.3511 32.2803C62.3459 33.2144 62.5378 34.1392 62.9142 34.9941C63.2906 35.8491 63.8431 36.615 64.5356 37.2418C65.228 37.8686 66.0449 38.3423 66.9328 38.6319C67.8207 38.9215 68.7597 39.0205 69.6884 38.9223C71.6207 38.9054 73.5086 38.3412 75.1334 37.295H75.4322L75.6314 33.974V33.6751L75.3658 33.8412L74.3366 34.4722C72.9695 35.5277 71.3134 36.1417 69.5888 36.2323C68.8149 36.2657 68.0504 36.052 67.4058 35.6222C66.7613 35.1923 66.2701 34.5686 66.0032 33.8412L75.9634 33.2434V31.6161C75.9384 30.7784 75.7451 29.9544 75.3949 29.1931C75.0448 28.4317 74.545 27.7487 73.9254 27.1847C73.3058 26.6206 72.5789 26.1872 71.7883 25.9101C70.9976 25.633 70.1593 25.5179 69.3232 25.5718L69.6884 25.2397ZM68.6924 30.9187L65.6712 31.1179C65.8681 30.2841 66.3444 29.5427 67.0208 29.0171C67.6973 28.4915 68.5332 28.2132 69.3896 28.2286C70.0624 28.1773 70.7316 28.3659 71.2785 28.7611C71.8255 29.1562 72.2149 29.7323 72.3777 30.3873L68.6924 30.9187Z" fill="#2D3A37"/>
<path d="M164.311 29.8891C163.819 29.8566 163.347 29.6806 162.954 29.3828C162.561 29.0851 162.263 28.6786 162.099 28.2136C161.934 27.7486 161.909 27.2456 162.027 26.7666C162.145 26.2876 162.401 25.8538 162.763 25.5186C163.124 25.1835 163.577 24.9617 164.063 24.8808C164.549 24.7999 165.049 24.8633 165.5 25.0633C165.951 25.2633 166.333 25.5911 166.6 26.006C166.866 26.421 167.005 26.9051 167 27.3983C166.966 28.0825 166.665 28.7261 166.162 29.1915C165.66 29.657 164.995 29.9073 164.311 29.8891ZM164.311 25.3061C163.904 25.332 163.513 25.4764 163.187 25.7214C162.861 25.9665 162.614 26.3016 162.476 26.6854C162.337 27.0693 162.314 27.4852 162.41 27.8819C162.505 28.2786 162.714 28.6389 163.011 28.9184C163.308 29.1978 163.68 29.3843 164.082 29.4549C164.484 29.5254 164.897 29.4769 165.272 29.3154C165.646 29.1539 165.965 28.8864 166.19 28.5457C166.414 28.2051 166.534 27.8063 166.535 27.3983C166.527 27.1148 166.462 26.8358 166.346 26.5771C166.229 26.3185 166.063 26.0854 165.856 25.8911C165.65 25.6968 165.407 25.5451 165.142 25.4447C164.877 25.3443 164.594 25.2972 164.311 25.3061Z" fill="#2D3A37"/>
<path d="M163.182 28.8265V25.9704H164.477H165.207C165.339 26.0286 165.454 26.1202 165.539 26.2361C165.588 26.3873 165.588 26.5498 165.539 26.701C165.591 26.8744 165.591 27.059 165.539 27.2324C165.358 27.3789 165.14 27.4711 164.908 27.4981L165.24 27.7305L165.606 28.1955L165.971 28.7601H165.207L164.776 28.1291C164.678 27.9862 164.566 27.8528 164.444 27.7305C164.379 27.7078 164.309 27.7078 164.244 27.7305H163.813V28.9261L163.182 28.8265ZM163.78 27.166H164.809C164.882 27.15 164.947 27.1069 164.99 27.0454C165.033 26.9838 165.051 26.9083 165.041 26.8339C165.061 26.7576 165.061 26.6776 165.041 26.6014C165.004 26.5859 164.965 26.5779 164.925 26.5779C164.885 26.5779 164.846 26.5859 164.809 26.6014H163.846L163.78 27.166Z" fill="#2D3A37"/>
</g>
<defs>
<clipPath id="clip0">
<rect width="167" height="45" fill="white"/>
</clipPath>
</defs>
</svg>
